<svg xmlns="http://www.w3.org/2000/svg" viewBox="0 0 217.4 70.2">
  <path d="M0 37.1c0-11.9 8.8-17.5 16.4-17.5 3.8-.1 7.4 1.3 10 4V4.8h9.2V54h-9.2v-3.8c-2.6 2.9-6.3 4.5-10.2 4.4C9.1 54.7 0 49 0 37.1zm26.7 0c0-5.1-3.6-9-8.6-9-2.4 0-4.7.9-6.4 2.6-1.7 1.7-2.6 4-2.6 6.4 0 2.4.9 4.7 2.6 6.5s4 2.7 6.4 2.6c5 0 8.6-4.1 8.6-9.1zm22.9 13.6v18.8h-9.2V20.3h9.2v3.8c2.5-3 6.2-4.6 10.1-4.5 7.6 0 16.3 5.6 16.3 17.5s-9 17.5-16.2 17.5c-4.5.1-8-1.4-10.2-3.9zM67 37.1c.1-2.4-.9-4.8-2.6-6.5S60.4 28 58 28c-5.1 0-8.6 4-8.6 9s3.6 9.1 8.6 9.1c2.4 0 4.8-.9 6.5-2.6 1.6-1.7 2.6-4 2.5-6.4zm11.8 0c0-11.9 8.8-17.5 16.4-17.5 3.8-.1 7.5 1.5 10 4.3v-3.6h9.2v33.2c0 10.1-7.5 16.7-16.3 16.7-9.5 0-15.7-5.5-17.7-12.9h10c1.3 2.7 3.3 4.2 7.7 4.2 4 0 7.1-3.4 7.1-7.8v-3.5c-2.6 2.9-6.3 4.5-10.2 4.4-7.1.1-16.2-5.6-16.2-17.5zm26.7 0c0-5.1-3.6-9-8.6-9-2.4 0-4.7.9-6.4 2.6-1.7 1.7-2.6 4-2.6 6.4 0 2.4.9 4.7 2.6 6.5s4 2.7 6.4 2.6c5 0 8.6-4.1 8.6-9.1zM53.7 4.8h2.2V6c.7-1 1.9-1.5 3.1-1.5 1.4-.1 2.8.6 3.4 1.9.8-1.2 2.1-1.9 3.5-1.9 2.9 0 4.3 1.7 4.3 4.4v6.2H68v-6c.1-.7-.1-1.4-.6-1.9s-1.1-.8-1.8-.7c-1.4 0-2.5 1-2.5 2.8v5.9h-2.2V9c.1-.7-.1-1.3-.6-1.8s-1.1-.7-1.8-.7c-1.5 0-2.5 1-2.5 2.9v5.8h-2.2l-.1-10.4zM72.4 10c0-1.4.5-2.8 1.5-3.9s2.4-1.6 3.8-1.6 2.8.5 3.8 1.5 1.6 2.4 1.5 3.8v.8h-8.6c.2 1.6 1.6 2.8 3.3 2.8 1.2.1 2.4-.6 2.8-1.8H83c-.8 2.5-3.4 4.1-6 3.6-2.6-.3-4.5-2.5-4.6-5.2zm2.3-1.2h6.2c-.3-1.4-1.6-2.4-3.1-2.3-1.4 0-2.7 1-3.1 2.3zM85.3 10c-.1-1.4.5-2.8 1.4-3.8s2.3-1.6 3.8-1.6c1.3 0 2.6.5 3.5 1.6V0h2.2v15.2H94v-1.4c-.8 1-2.1 1.7-3.5 1.6-1.4 0-2.8-.6-3.7-1.6-1-1-1.6-2.4-1.5-3.8zm8.8 0a3.4 3.4 0 0 0-3.4-3.2c-1.8 0-3.2 1.5-3.2 3.3 0 1.8 1.5 3.3 3.3 3.3.9 0 1.7-.4 2.4-1 .6-.7.9-1.5.9-2.4zm6.2-9.8c.8 0 1.5.7 1.5 1.5s-.7 1.5-1.5 1.5-1.5-.7-1.5-1.5c0-.4.1-.8.4-1.1s.7-.4 1.1-.4zm-1.2 4.6h2.2v10.4h-2.2V4.8zm4.5 5.2c-.1-1.4.5-2.8 1.4-3.8 1-1 2.3-1.6 3.8-1.6 1.3 0 2.6.5 3.5 1.6V4.8h2.2v10.4h-2.2v-1.4c-.8 1-2.1 1.7-3.5 1.6-1.4 0-2.8-.6-3.7-1.6-1.1-1-1.6-2.4-1.5-3.8zm8.8 0c-.1-1.8-1.6-3.2-3.4-3.2s-3.2 1.5-3.2 3.3c0 1.8 1.5 3.3 3.3 3.3.9 0 1.7-.4 2.4-1s.9-1.5.9-2.4z" fill="#777"/>
  <linearGradient id="a" gradientUnits="userSpaceOnUse" x1="144.899" y1="31.201" x2="152.316" y2="31.201">
    <stop offset="0" stop-color="#a200be"/>
    <stop offset="1" stop-color="#b310a0"/>
  </linearGradient>
  <path d="M145.9 28.3c.3 0 .7 0 1 .1.6.3 1.1.7 1.4 1.3.1.1.1.2.2.3.1.1.2.1.2.1.3 0 .6.2.9.4.3.3.6.6.7.9.1.5.2.9.2 1.4 0 .5 0 1-.2 1.5-.1.2-.3.5-.4.7.5-.1 1-.3 1.4-.5.3-.1.6-.3.7-.5.2-.2.2-.6.1-.9-.1-.1-.2-.3-.2-.4-.1-.3-.2-.6-.4-.9-.1-.2 0-.3 0-.5v-1.9c-.2-.3-.4-.6-.7-.8-.3-.2-.6-.4-.9-.4-.5-.1-1-.1-1.5-.3-.4-.1-.7-.3-1-.4-.2-.1-.5-.2-.8-.2-.2 0-.5.1-.7.1-.1 0-.3.1-.4.1-.3.2-.6.5-.7.8.4.1.8 0 1.1 0z" fill="url(#a)"/>
  <linearGradient id="b" gradientUnits="userSpaceOnUse" x1="140.034" y1="31.631" x2="143.754" y2="31.631">
    <stop offset="0" stop-color="#a200be"/>
    <stop offset="1" stop-color="#b310a0"/>
  </linearGradient>
  <path d="M140 32.3c0 .2 0 .5.1.7.1.1.2.2.3.4.1-.2.3-.3.4-.5.1-.2.3-.3.4-.4.1.6 0 1.3.2 1.9.1.2.1.5.3.6.1.1.2.2.4.3 0-.1-.2-.2-.2-.3 0-.1-.1-.2-.2-.4-.1-.4-.3-.9-.3-1.4-.1-.7-.1-1.5 0-2.3 0-.2 0-.4.1-.6 0-.1.1-.3.3-.3.1 0 .2-.2.3-.3 0-.3.1-.6.3-.8.2-.2.5-.2.7-.2h.7c-.1-.2-.3-.3-.4-.5-.2-.2-.5-.3-.7-.3-.3 0-.6 0-.9.2-.3.2-.4.4-.5.7-.2.3-.3.6-.4.9-.1.3-.2.6-.3 1-.1.3-.3.6-.4 1-.2.1-.2.4-.2.6z" fill="url(#b)"/>
  <linearGradient id="c" gradientUnits="userSpaceOnUse" x1="141.955" y1="31.174" x2="148.121" y2="31.174">
    <stop offset="0" stop-color="#a200be"/>
    <stop offset="1" stop-color="#b310a0"/>
  </linearGradient>
  <path d="M143.6 29.5c-.3 0-.6-.1-.9-.2v1c0 .2 0 .5-.1.7-.1.4-.3.8-.5 1.2-.1.4-.2.9-.1 1.4 0-.1.1-.3.1-.4.2-.9.7-1.8 1.4-2.4.6-.5 1.3-.7 2-.7.4 0 .7-.2 1.1-.2.3-.1.6-.1.9.1.3.2.4.5.6.8 0-.4-.2-.8-.5-1.1-.4-.4-.8-.7-1.3-.8-.3-.1-.7-.1-1 0-.3 0-.5.3-.8.4-.3.1-.6.2-.9.2z" fill="url(#c)"/>
  <linearGradient id="d" gradientUnits="userSpaceOnUse" x1="132.968" y1="34.492" x2="140.057" y2="34.492">
    <stop offset="0" stop-color="#a200be"/>
    <stop offset="1" stop-color="#b310a0"/>
  </linearGradient>
  <path d="M133.7 37.5c.3.5.6.9.9 1.2.2.2.4.4.7.5.3.1.5.1.8.1.3 0 .6 0 .9-.1-.2-.2-.4-.3-.5-.4-.3-.3-.7-.6-.9-1.1-.2-.3-.3-.6-.4-1-.2-.6-.4-1.3-.5-1.9.1 0 .2.1.3.2.2.2.4.3.6.4.1 0 .1 0 .2-.1.1-.2.1-.3 0-.5 0-.6-.2-1.1-.3-1.7 0-.2-.1-.3-.1-.5.2.1.4.3.6.5.2.3.5.5.7.7.1.1.2.1.3.1.6 0 1.2 0 1.7-.1.4-.1.8-.1 1.1-.2-.2-.5-.4-1-.5-1.5-.1-.4 0-.7.1-1.1.1-.3.3-.6.5-.8-.6-.2-1.2-.5-1.8-.6-.6-.1-1.2-.1-1.7-.1s-1.1 0-1.6.3c-.3.1-.6.4-.8.6-.2.2-.2.5-.3.7-.1.3-.1.6-.1 1 0 .8.1 1.6.1 2.4 0 .2-.1.5-.2.7-.1.3-.4.5-.6.7-.1.1 0 .2 0 .2.3.6.6 1 .8 1.4z" fill="url(#d)"/>
  <linearGradient id="e" gradientUnits="userSpaceOnUse" x1="143.824" y1="33.513" x2="149.89" y2="33.513">
    <stop offset="0" stop-color="#a200be"/>
    <stop offset="1" stop-color="#b310a0"/>
  </linearGradient>
  <path d="M149.6 33.3c-.3-.4-.6-.6-1-.9-.4-.3-.7-.6-.9-1-.2-.2-.3-.5-.4-.8 0 0 0-.1-.1-.1s-.2.1-.3.1c-.5.2-1.1.2-1.6.3-.3 0-.5.1-.8.2-.2.1-.5.2-.7.4.7-.2 1.4-.4 2.1-.2.4.1.8.3 1.1.5.2.2.4.5.5.8.1.3.1.6.2.8 0 .2 0 .4.1.6 0 .2 0 .4-.1.6-.1.4-.2.9-.3 1.3-.1.2-.1.3-.2.5.3 0 .6-.3.8-.4.2-.1.4-.2.6-.4.2-.1.4-.3.5-.4.2-.1.3-.3.4-.5.1-.2.3-.4.3-.7.1-.2 0-.5-.2-.7z" fill="url(#e)"/>
  <linearGradient id="f" gradientUnits="userSpaceOnUse" x1="142.581" y1="33.614" x2="146.656" y2="33.614">
    <stop offset="0" stop-color="#a200be"/>
    <stop offset="1" stop-color="#b310a0"/>
  </linearGradient>
  <path d="M146.3 32.6c-.2-.2-.4-.5-.7-.6-.2-.1-.4-.1-.6-.1-.6-.1-1.1.1-1.6.5-.4.3-.7.7-.8 1.2 0 .3 0 .6.2.8.2.2.5.3.8.3.2 0 .5 0 .6-.1.2-.2.4-.4.5-.7.1-.3-.1-.5-.2-.7-.1 0-.1 0-.2-.1 0 .2-.2.4-.3.5-.2.1-.4 0-.5-.2V33c0-.1 0-.2.1-.3.4-.1.9 0 1.3.1.1.2.2.3.3.5.1.2.1.3.1.5.1-.2.2-.4.2-.6 0-.3-.3-.5-.3-.7.2-.1.4.1.5.3.2.3.2.6.2 1-.1.3-.2.6-.4.7-.4.4-1.1.6-1.7.6h-.4c.1.2.3.2.5.3.2.1.3.1.5.1s.5 0 .7-.1c.4-.1.8-.3 1-.6.2-.3.4-.6.4-.9v-.7c.1-.3 0-.5-.2-.6z" fill="url(#f)"/>
  <linearGradient id="g" gradientUnits="userSpaceOnUse" x1="150.083" y1="34.502" x2="154.097" y2="34.502">
    <stop offset="0" stop-color="#a200be"/>
    <stop offset="1" stop-color="#b310a0"/>
  </linearGradient>
  <path d="M150.1 35.5c.1.4.3.8.3 1.3 0 .1 0 .1.1.2.2-.1.4-.3.6-.4.4-.2.8-.5 1.2-.7.4-.2.7-.5 1-.7.1-.1.3-.3.4-.5.1-.2.2-.5.3-.8.1-.6.1-1.3-.1-1.9 0 .4-.1.8-.2 1.2-.1.4-.4.7-.7.9-.4.3-.8.5-1.2.7-.5.3-1.1.5-1.7.7z" fill="url(#g)"/>
  <linearGradient id="h" gradientUnits="userSpaceOnUse" x1="137.901" y1="37.899" x2="141.111" y2="37.899">
    <stop offset="0" stop-color="#a200be"/>
    <stop offset="1" stop-color="#b310a0"/>
  </linearGradient>
  <path d="M138.6 38.8c.1-.3.2-.7.3-1 .2-.5.5-.9.8-1.4.3-.4.7-.8 1.2-1.1.1 0 .2-.1.2-.1v-.3c-.1-.3-.1-.6-.2-.9 0-.1 0-.3-.1-.4-.2.1-.3.3-.4.5l-.9 1.2c-.2.3-.4.7-.6 1-.2.3-.4.6-.5.9-.2.4-.4.8-.5 1.3-.1.4-.1.8 0 1.2 0 .5.1 1 .2 1.4.1.3.3.7.5 1 0-.3-.1-.7-.1-1v-1.3c0-.3 0-.7.1-1z" fill="url(#h)"/>
  <linearGradient id="i" gradientUnits="userSpaceOnUse" x1="143.184" y1="36.188" x2="146.716" y2="36.188">
    <stop offset="0" stop-color="#a200be"/>
    <stop offset="1" stop-color="#b310a0"/>
  </linearGradient>
  <path d="M146.5 35.3c-.1.1-.3.2-.4.3-.4.2-.9.4-1.3.5h-.3c-.3-.1-.6-.1-.8-.2-.1 0-.3-.1-.4-.2.2.3.4.5.6.8.3.3.6.6 1.1.7.6.1 1.1 0 1.6-.2.1 0 .2-.1.2-.1 0-.4-.2-.9-.2-1.3-.1-.2-.1-.3-.1-.3z" fill="url(#i)"/>
  <linearGradient id="j" gradientUnits="userSpaceOnUse" x1="139.908" y1="39.069" x2="149.885" y2="39.069">
    <stop offset="0" stop-color="#a200be"/>
    <stop offset="1" stop-color="#b310a0"/>
  </linearGradient>
  <path d="M149.4 38.4c.1-.2.3-.4.4-.6 0-.2.1-.4.1-.5v-.8c-.1-.3-.2-.6-.2-.8-.3.2-.7.4-1 .6-1 .7-2.1 1.2-3.3 1.4-.7.1-1.4.3-2 .6-.4.2-.7.4-1.1.7-.5.4-.9.9-1.3 1.4-.3.4-.5.9-.7 1.4-.1.3-.3.5-.4.8.2-.1.3-.3.4-.4.4-.3.7-.7 1.1-1 .1-.1.3-.2.3-.4.1-.2 0-.5.1-.7.1-.2.3-.3.5-.4.5-.4 1.1-.8 1.6-1.2.3-.2.7-.4 1.1-.5.4 0 .7 0 1.1.1.5.2.9.3 1.4.5.4.1.7.1 1.1.1.4 0 .6-.1.8-.3z" fill="url(#j)"/>
  <linearGradient id="k" gradientUnits="userSpaceOnUse" x1="142.017" y1="41.253" x2="156.522" y2="41.253">
    <stop offset="0" stop-color="#a200be"/>
    <stop offset="1" stop-color="#b310a0"/>
  </linearGradient>
  <path d="M156.4 36.3c-.2-.2-.4-.3-.6-.4-.3-.2-.6-.2-1-.2-.1 0-.3-.1-.4 0-.2 0-.4.1-.6.2-.4.1-.8.3-1.1.5-.5.3-1 .6-1.5 1-.3.3-.6.5-.9.8-.1.1-.2.2-.2.4l1.5-.9c.3-.2.7-.3 1-.4h.3c0 .2-.1.4-.2.5-.1.2-.2.5-.3.8-.2.5-.5.9-.9 1.3-.3.3-.7.6-1 .9-.3.2-.5.4-.8.6-.1.1-.2.1-.2.2-.3.2-.6.5-.9.8-.2.2-.2.5-.2.7 0 .2.1.4.1.5 0 .1 0 .2-.1.2-.5 0-1 .1-1.4.2-.6.1-1.3.2-1.9.4-.5.1-.9.2-1.4.4-.5.2-.9.5-1.2.9-.3.4-.4.8-.3 1.3.1-.1.1-.2.1-.2 0-.3.2-.6.4-.8.3-.2.7-.2 1.1-.3.6 0 1.2.1 1.9.2.2 0 .3 0 .4-.1.2-.1.5-.3.7-.5.2-.1.4-.2.5-.3.2-.1.5-.1.7-.1h.6c.2.1.4.2.5.4.3.2.5.5.8.7.2.1.4.1.6 0 .4-.2.6-.5.7-.8.1-.2 0-.4.1-.6.1-.1.2-.2.4-.2.5-.1 1 .1 1.4.1.2 0 .4-.1.5-.3.1-.2.2-.5.2-.7 0-.5-.1-1-.1-1.5 0-.4.3-.7.5-.9.3-.3.6-.5.8-.9.2-.3.1-.6.1-1-.1-.5-.3-.9-.4-1.4-.1-.2-.1-.5 0-.8.1-.2.3-.4.5-.5.3-.1.5 0 .8 0 .2 0 .4.1.5 0 0-.1-.1-.1-.1-.2z" fill="url(#k)"/>
  <linearGradient id="l" gradientUnits="userSpaceOnUse" x1="130.716" y1="40.365" x2="137.498" y2="40.365">
    <stop offset="0" stop-color="#a200be"/>
    <stop offset="1" stop-color="#b310a0"/>
  </linearGradient>
  <path d="M132 40.5c.4.5.8 1.1 1.2 1.6.3.4.7.7 1.1 1 .3.2.8.3 1.1.3.4-.1.7-.3 1-.5.2-.1.3-.3.4-.4.2-.2.4-.5.6-.8-.2.1-.4.2-.7.3h-1.1c-.2 0-.5 0-.7-.1-.2-.1-.3-.1-.5-.2.1-.1.3-.1.4-.3-.1-.1-.3-.1-.5-.2s-.3-.1-.5-.2-.4-.3-.6-.5c-.2-.2-.4-.5-.6-.7-.1-.1-.2-.2-.2-.4.2 0 .4.2.6.2.6.3 1.2.5 1.9.5h1c.1 0 .3 0 .4-.1-.2-.1-.4-.1-.5-.1-.5-.1-1-.4-1.4-.7-.5-.3-.9-.8-1.3-1.2-.2-.2-.3-.5-.4-.7l-.5.5c-.4.3-.8.5-1.2.6-.1 0-.2.1-.4.1.1.2.3.5.4.7.4.5.7.9 1 1.3z" fill="url(#l)"/>
  <linearGradient id="m" gradientUnits="userSpaceOnUse" x1="140.039" y1="42.198" x2="149.05" y2="42.198">
    <stop offset="0" stop-color="#a200be"/>
    <stop offset="1" stop-color="#b310a0"/>
  </linearGradient>
  <path d="M148.2 41.6c.3-.2.5-.5.8-.7l.1-.1v-1.5c-.4.1-.8 0-1.2 0 0 .1 0 .2-.1.2-.1.2-.2.4-.3.5-.2.4-.6.8-.9 1.2-.4.4-.8.8-1.3 1.1-.1.1-.3.2-.4.2 0-.2.1-.3.1-.5.2-.6.4-1.1.5-1.7 0-.2.1-.4.1-.6 0 .1-.1.1-.1.2-.3.5-.5 1.1-.8 1.6-.4.8-1.2 1.3-1.9 1.8-.3.2-.6.2-.9.3-.4.1-.9.1-1.3.1h-.4l.1.1c.5.5 1.1.9 1.8 1.1.2 0 .3-.1.4-.2.2-.2.5-.4.8-.6.5-.3 1.1-.4 1.7-.6.6-.1 1.1-.3 1.7-.4.4-.1.8-.1 1.2-.2 0-.3-.1-.6 0-.9-.1 0 .1-.2.3-.4z" fill="url(#m)"/>
  <linearGradient id="n" gradientUnits="userSpaceOnUse" x1="166.012" y1="37.862" x2="185.12" y2="37.862">
    <stop offset="0" stop-color="#c01d8a"/>
    <stop offset="1" stop-color="#d22d6c"/>
  </linearGradient>
  <path d="M168.8 35.1c-.2-.3-.4-.7-.5-1-.1-.2-.9.1-1.1.2l-1.2.6c0 .1.3.2.4.2.1.1.3.2.4.3 1.3 1.1 2 2.7 2.8 4.2.7 1.3 1.5 2.5 2.7 3.3h-.2c-.5.1-1 .8-1.3 1.1-.4.5-.8 1-1.1 1.6-.2.3-.3.6-.4.9-.1.2-.3.6-.3.9 2.5-.2 5.2-1 6.3-3.5h.1c-.1.3-.3.7-.4 1-.3 1.3-.6 2.6-.3 3.9.1.3.1.6.2.8.1.3.2 0 .3-.1.4-.4.7-.9 1-1.3.3-.5.3-1.2.4-1.9.1-.5.3-1 .3-1.5.4.6.9 1.2 1.6 1.6 1.4.9 3.1 1.3 4.8 1.3 0-.2-.1-.4-.2-.6V47c-.6-1.4-1.4-2.7-2.6-3.7-.2-.1-.3-.2-.5-.4.6-.2 1.2-.5 1.6-.9 1.2-1.3 1.4-3.3 1.6-4.9.2-1.8.3-3.6 1.3-5.1.1-.2.3-.4.4-.5.1-.2.2-.2 0-.3-.4-.2-.8-.3-1.2-.4-.2 0-.4-.1-.6-.1-.2 0-.2 0-.3.1-.2.4-.2.8-.3 1.2-.1-.1.1-.9.1-1.1.1-.4.2-.7.3-1.1.2-.6.5-1.2.9-1.8.1-.2 0-.2-.2-.2s-.3-.1-.5-.1c-.4 0-.8 0-1.2.1-.2 0-.4.1-.5.1-.1.1 0 .3-.1.4 0 .1 0 .8-.1.9v-1c0-.3-.1-.6 0-.9 0-.2-.1-.4-.1-.6 0-.2-.2 0-.3.1-.1.1-.2.1-.3.2-.3.1-.6.3-.9.4-.1 0-.4.1-.4.2s0 .2.1.3c.1.5 0 1.1-.4 1.4-.8.6-2.3.3-3.1-.3-1.3-.9 1.2-1.6 1.4-.7-.2-.1-.5-.1-.7-.1-.2 0-.5 0-.6.1-.3.3.6.7.8.8.4.2.9.3 1.4.2.4-.1 1-.3 1.1-.8.1-.5-.4-.7-.8-.9-.5-.2-1-.4-1.5-.5-.5-.1-1.1-.1-1.6 0-.2 0-.4 0-.6.1-.2 0-.5.2-.7.2 0-.1.4-.2.5-.2.2 0 .5 0 .6-.1-.3-.2-.6-.5-.8-.8-.1-.1-.7-.8-.7-.8-.6.5-1 1.2-1.4 1.8-.2.2-.3.5-.5.7-.1.2-.2.3-.3.5 0 .1-.1.3-.2.3 0-.3.3-.7.5-1 .1-.1.3-.3.1-.4-.2-.1-.3-.1-.5-.2-.8-.2-1.6-.4-2.4-.4.1.5.3.9.4 1.4.1.4.2.9.2 1.4 0 .5.1.9.1 1.4v.7c0 .1 0 .5-.1.6-.1-.2 0-.6 0-.7v-.8c0-.5 0-.9-.1-1.4-.7 0-1.4.4-2 .7-.3.2-.5.4-.8.6-.1.1-.2.1-.1.2.1 0 .1.1.1.1l.3.3c.4.6.8 1.2 1.1 1.8.2.3.3.6.5 1 .1.4.4 1 .3 1 0 .1 0 0 0 0zm6.8 2.7c0 .1 0 .1 0 0zm.4-.8c-.2-.1-.5-.2-.6-.4-.2 0-.5-.3-.7-.4-.2-.1-.4-.2-.7-.3-1-.5-2-.8-3-1.3-.8-.4-1.8-.8-2.4-1.5-.3-.3-.6-.6-.7-1-.1-.1-.5-1.1-.3-1.2.1.1.1.2.1.3 0 .1.1.2.2.3.1.2.2.3.3.5.3.3.6.7.9 1 .4.3.7.5 1.2.8.4.2.9.4 1.4.6.5.2 1.1.4 1.6.6.3.1.6.2.8.3.2.1.4.1.6.3.4.1.9.5 1.2.8.2.1.4.3.6.5.1.1.2.3.4.4.1-.1.2-.5.3-.6.1-.3.3-.5.5-.8.1-.1.3-.3.5-.4.1-.2 0-.1 0-.3-.1-.1-.2-.1-.2-.2-.4-.4-.9-.7-1.3-.9-.5-.4-1.1-.7-1.6-1-.5-.3-1.1-.6-1.7-.9-.2-.1-.4-.2-.6-.4-.2-.1-.6-.3-.7-.6-.2 0-.5-.4-.6-.6-.2-.2-.3-.4-.4-.6-.2-.2-.3-.5-.3-.7-.1-.2-.1-.5-.1-.7.1 0 .1.4.2.5 0 .1.2.3.2.4.1.1.2.3.3.4l.4.4c.5.5 1.2 1 1.8 1.3.7.4 1.5.8 2.2 1.2.3.2.7.4 1 .6.1.1.3.2.4.3l.3-.3c.3-.3.6-.6 1-.8.1-.1.4-.2.2-.3-.2-.1-.3-.2-.5-.3-.6-.4-1.2-.8-1.9-1.2-1.2-.6-2.3-1.7-2.4-3.1.1 0 .1.2.1.3 0 .1.1.2.1.3.1.2.2.3.3.4.2.3.5.6.8.8.4.3.8.6 1.3.8.4.2.9.5 1.3.6.1.1.4.3.5.2.1-.1.2-.2.4-.3.3-.3.6-.5 1-.8.3-.2.7-.4 1-.8.3-.4.4-.8.3-1.2.2.1.3.9.2 1 0 .4-.4.7-.7.9-.4.3-.7.6-1.1.9-.2.1-.3.3-.5.4l-.1.1c.1.1.2.1.3.2.1.1.4.3.6.3.1-.1.3-.2.4-.2.5-.2.9-.5 1.4-.8.4-.3.8-.6 1.1-1 .1-.2.3-.4.4-.6.1-.1.2-.5.3-.5.1 0-.2.7-.2.8-.2.3-.3.6-.5.9-.3.5-.8.8-1.3 1.1-.6.3-1.2.7-1.7 1.1-.3.2-.6.5-.9.7-.1.1-.2.2-.4.3-.1.1-.2.1-.1.2.2.1.4.3.6.4.1.1.3.2.4.3.2.1.2.2.3.1l1.8-.9c.7-.3 1.3-.5 1.9-.9l.9-.6c.2-.2.4-.5.7-.7.1 0-.4.7-.5.7-.2.2-.4.4-.7.6-.6.4-1.1.8-1.7 1.1-.7.3-1.4.6-2 1-.6.3-1 .7-1.4 1.2-.2.3-.4.6-.5 1 0 .1-.1.2 0 .2s.2.1.2.1c.1.1.2.1.3.2.6.4 1 .9 1.4 1.4.3.5.6 1.2.7 1.7.1.3.2.6.2.9.1.3.2.7.2 1.1-.1 0-.2-.8-.2-.9-.1-.4-.2-.7-.4-1.1-.1-.3-.3-.6-.5-.9-.2-.2-.4-.5-.5-.7-.5-.5-1-.9-1.6-1.2-.7-.3-1.4-.5-2.1-.6-1.5-.3-3-.3-4.5-.7-.6-.2-1.2-.3-1.8-.6-.3-.1-.6-.3-.8-.5-.2-.2-.5-.4-.5-.7.1 0 .3.3.4.3.2.1.3.2.5.3.3.2.7.3 1.1.4.8.2 1.6.4 2.5.5.9.1 1.8.3 2.7.4.4.1.8.2 1.2.2.3.1.6.1.8.2-.9.2-1.1 0-1.3-.1z" fill="url(#n)"/>
  <linearGradient id="o" gradientUnits="userSpaceOnUse" x1="175.558" y1="37.862" x2="175.574" y2="37.862">
    <stop offset="0" stop-color="#c01d8a"/>
    <stop offset="1" stop-color="#d22d6c"/>
  </linearGradient>
  <path d="M175.6 37.8c0 .1 0 .1 0 0z" fill="url(#o)"/>
  <linearGradient id="p" gradientUnits="userSpaceOnUse" x1="208.874" y1="41.618" x2="217.377" y2="41.618">
    <stop offset="0" stop-color="#df3956"/>
    <stop offset="1" stop-color="#f04939"/>
  </linearGradient>
  <path d="M215.9 37.1c-.8-1.2-1.1 3.4-1.7 5.2-.6 1.7-1.7 3-4.5 2.4-1.3-.3-1.1 1.2 1.6 1.6 2.7.5 3.8-2.1 4.2-3.6.4-1.5 1.6-1 1.9-2.3.2-1.2-1-2.5-1.5-3.3z" fill="url(#p)"/>
  <linearGradient id="q" gradientUnits="userSpaceOnUse" x1="202.423" y1="41.247" x2="214.414" y2="41.247">
    <stop offset="0" stop-color="#df3956"/>
    <stop offset="1" stop-color="#f04939"/>
  </linearGradient>
  <path d="M203.7 43c1.2-.6 5 1.7 7.3 1.2s3.6-5 3.3-5.8c-.3-.8-1.3 2.4-3.3 3.7-2 1.2-3.5.4-7.1-.7-1.7-.6-2.2 2.6-.2 1.6z" fill="url(#q)"/>
  <linearGradient id="r" gradientUnits="userSpaceOnUse" x1="197.965" y1="41.602" x2="208.542" y2="41.602">
    <stop offset="0" stop-color="#df3956"/>
    <stop offset="1" stop-color="#f04939"/>
  </linearGradient>
  <path d="M201.5 41.2c-.2-2-3.4-4.8-3.5-4-.3 2.1.6 6.4 3.9 7.8 3.3 1.4 3.9-.9 5.8.7s.2-2.4-2.4-2.1c-2.6.3-3.4 1.3-3.8-2.4z" fill="url(#r)"/>
  <linearGradient id="s" gradientUnits="userSpaceOnUse" x1="203.753" y1="40.067" x2="211.074" y2="40.067">
    <stop offset="0" stop-color="#df3956"/>
    <stop offset="1" stop-color="#f04939"/>
  </linearGradient>
  <path d="M204.7 40.7c1.5 1.1 4 1.8 5.7.9 1.3-.7.3-4.4-.6-3.2-.9 1.3-3 2.4-5.6 1-.7-.4-.7.4.5 1.3z" fill="url(#s)"/>
  <linearGradient id="t" gradientUnits="userSpaceOnUse" x1="207.128" y1="35.832" x2="209.311" y2="35.832">
    <stop offset="0" stop-color="#df3956"/>
    <stop offset="1" stop-color="#f04939"/>
  </linearGradient>
  <path d="M207.7 35.4c1-.2 1 1.2 1.3 1.3.4.1.3-.9 0-1.3s-1.1-.7-1.5-.3c-.3.4-.7.5.2.3z" fill="url(#t)"/>
  <linearGradient id="u" gradientUnits="userSpaceOnUse" x1="207.106" y1="36.065" x2="210.266" y2="36.065">
    <stop offset="0" stop-color="#df3956"/>
    <stop offset="1" stop-color="#f04939"/>
  </linearGradient>
  <path d="M207.4 37.2c.2.6 2.1.9 2.7-.3.6-1.2-.8-2.4-1.4-2.5-.5-.1-1.1.5-.2.4.8-.1 1.3 1 .9 2.1-.5 1-1.1 0-1-.3.1-.3-.5-.8-1-.7-.5.1-.2.7 0 1.3z" fill="url(#u)"/>
  <linearGradient id="v" gradientUnits="userSpaceOnUse" x1="205.38" y1="36.318" x2="209.308" y2="36.318">
    <stop offset="0" stop-color="#df3956"/>
    <stop offset="1" stop-color="#f04939"/>
  </linearGradient>
  <path d="M205.9 39.2c1 .1 2.9-.1 2.8-.8-.2-.7-1.8.5-2-1.3-.2-1.8.4-3.2 1.7-3 1.3.2 1.3-.8-.2-.7-1.3.1-2.8 1-2.7 2.3.1 1.3-.6 3.4.4 3.5z" fill="url(#v)"/>
  <linearGradient id="w" gradientUnits="userSpaceOnUse" x1="197.647" y1="35.742" x2="203.18" y2="35.742">
    <stop offset="0" stop-color="#df3956"/>
    <stop offset="1" stop-color="#f04939"/>
  </linearGradient>
  <path d="M202.1 40.3c1.3 2.1 1.5-1.1 0-2.5-1.5-1.3-2.2-4.1-.9-5 .6-.4 1.2-1.3 1.3-1.8.1-.4-.1-.6-.5-.5-2 .9-4.6 2.5-4.4 3.7.3 1.4 3.2 4 4.5 6.1z" fill="url(#w)"/>
  <linearGradient id="x" gradientUnits="userSpaceOnUse" x1="201.226" y1="35.21" x2="204.949" y2="35.21">
    <stop offset="0" stop-color="#df3956"/>
    <stop offset="1" stop-color="#f04939"/>
  </linearGradient>
  <path d="M204.1 31.6c-2.3 1.2-3.7 3.1-2.3 4.8 1.5 1.7 2.8 3.1 3.1 2.6.3-.5-3.1-3.6-1.1-6.2 1.6-2 1.2-1.7.3-1.2z" fill="url(#x)"/>
  <linearGradient id="y" gradientUnits="userSpaceOnUse" x1="203.879" y1="34.233" x2="210.861" y2="34.233">
    <stop offset="0" stop-color="#df3956"/>
    <stop offset="1" stop-color="#f04939"/>
  </linearGradient>
  <path d="M205.5 31.8c-1.8 1.6-2.2 4-.9 5.5.2.2.4.2.3-.1-.3-1.5-.2-3.3 2-4 2.5-.8 3.7 1.1 3.8 1.1.2.3.2-.2 0-.7-.6-1.8-3.3-3.6-5.2-1.8z" fill="url(#y)"/>
  <linearGradient id="z" gradientUnits="userSpaceOnUse" x1="203.163" y1="33.803" x2="216.162" y2="33.803">
    <stop offset="0" stop-color="#df3956"/>
    <stop offset="1" stop-color="#f04939"/>
  </linearGradient>
  <path d="M203.4 31.2c.7-.3 2.1-3 6.6.1 4.6 3.1-.1 2.7 1 5.7 1.2 3.3.8 3.7 2.3 1.4 1.2-1.8 4.2-4.9 2.1-6.3-2.1-1.4-3-.9-7.5-3.5-4.2-2.4-3.9 1-4.7 2.3-.1.2 0 .4.2.3z" fill="url(#z)"/>
</svg>
